<svg width="215" height="215" viewBox="0 0 215 215" fill="none" xmlns="http://www.w3.org/2000/svg">
<path d="M214.808 107.465C214.808 166.625 166.841 214.581 107.669 214.581C48.501 214.581 0.53363 166.625 0.53363 107.465C0.53363 48.305 48.501 0.34668 107.669 0.34668C166.841 0.34668 214.808 48.305 214.808 107.465Z" fill="#E8EDF2"/>
<path d="M166.305 97.6696C166.305 97.6696 177.919 68.179 164.123 52.7044C164.123 52.7044 145.316 48.4516 128.777 66.9468C128.775 66.9468 134.68 95.4585 166.305 97.6696Z" fill="#6B4F5B"/>
<path d="M166.306 100.438C166.243 100.438 166.178 100.435 166.115 100.432C132.78 98.0988 126.13 67.8131 126.065 67.5074C125.886 66.6473 126.126 65.7524 126.714 65.0983C144.139 45.6195 163.903 49.8232 164.737 50.0053C165.297 50.132 165.807 50.4314 166.191 50.8638C180.952 67.4155 169.385 97.4161 168.884 98.6832C168.463 99.7476 167.436 100.438 166.306 100.438ZM131.828 67.7149C133.355 73.0114 140.467 92.023 164.41 94.7187C166.542 88.2628 172.385 67.2492 162.664 55.2591C159.065 54.7539 144.99 53.813 131.828 67.7149Z" fill="#4C241D"/>
<path d="M156.713 64.4774C156.713 64.4774 139.809 66.6537 135.411 77.8709L154.492 92.5948C154.492 92.5948 164.177 82.4135 156.713 64.4774Z" fill="#E66353"/>
<path d="M154.49 95.3635C153.896 95.3635 153.3 95.175 152.798 94.7885L133.718 80.0646C132.745 79.3123 132.386 78.0071 132.834 76.8604C137.774 64.2605 155.602 61.8276 156.359 61.731C157.581 61.5885 158.788 62.2585 159.268 63.4147C167.333 82.7953 156.944 94.0346 156.497 94.505C155.957 95.0721 155.223 95.3635 154.49 95.3635ZM138.887 77.0584L153.926 88.6636C155.871 85.3849 158.672 78.2051 154.956 67.6184C150.992 68.4943 142.529 71.0127 138.887 77.0584Z" fill="#4C241D"/>
<path d="M51.9084 97.6696C51.9084 97.6696 40.2931 68.179 54.0899 52.7044C54.0899 52.7044 72.8959 48.4516 89.4365 66.9468C89.4365 66.9468 83.5322 95.4585 51.9084 97.6696Z" fill="#6B4F5B"/>
<path d="M51.9069 100.438C50.7758 100.438 49.7492 99.7477 49.3294 98.6833C48.8288 97.4162 37.2594 67.4156 52.0226 50.8639C52.4075 50.4315 52.9145 50.1305 53.4784 50.0038C54.3165 49.8264 74.0778 45.6228 91.5007 65.0984C92.0869 65.7525 92.3277 66.6474 92.1487 67.5059C92.0837 67.8116 85.4333 98.0989 52.1002 100.432C52.0337 100.435 51.9687 100.438 51.9069 100.438ZM55.549 55.2592C45.8046 67.2715 51.6582 88.2676 53.8 94.7188C77.5202 92.0262 84.8107 72.9339 86.3727 67.7054C73.2255 53.8258 59.161 54.7476 55.549 55.2592Z" fill="#4C241D"/>
<path d="M61.5008 64.4774C61.5008 64.4774 78.4026 66.6537 82.8019 77.8709L63.7203 92.5948C63.7219 92.5948 54.0345 82.4135 61.5008 64.4774Z" fill="#E66353"/>
<path d="M63.7218 95.3634C62.9867 95.3634 62.2564 95.072 61.7162 94.5049C61.2695 94.0329 50.8803 82.7936 58.9455 63.4146C59.4239 62.2584 60.6263 61.5932 61.854 61.7309C62.6113 61.8276 80.4398 64.2604 85.3794 76.8603C85.8277 78.0055 85.4681 79.3122 84.4954 80.063L65.4153 94.7869C64.9115 95.1734 64.3175 95.3634 63.7218 95.3634ZM63.2576 67.6183C59.5554 78.1718 62.3594 85.3722 64.2921 88.6572L79.3246 77.0567C75.6825 71.0126 67.2197 68.4942 63.2576 67.6183Z" fill="#4C241D"/>
<path d="M49.5797 117.696C49.1615 117.696 48.7401 117.603 48.344 117.405C38.6155 112.539 28.7681 117.359 28.6715 117.405C27.3059 118.086 25.6425 117.535 24.9565 116.166C24.2722 114.799 24.8266 113.136 26.1954 112.454C26.7007 112.205 38.6535 106.373 50.8201 112.454C52.1889 113.136 52.7418 114.799 52.059 116.166C51.571 117.137 50.5952 117.696 49.5797 117.696Z" fill="#4C241D"/>
<path d="M21.899 137.074C20.8217 137.074 19.7999 136.443 19.3516 135.395C18.748 133.99 19.3991 132.362 20.8059 131.761C21.6424 131.402 41.5034 123.02 53.5893 129.061C54.9564 129.745 55.5109 131.408 54.8265 132.775C54.1406 134.144 52.4803 134.692 51.1116 134.014C41.3212 129.115 23.1664 136.773 22.9858 136.849C22.6309 137.001 22.2602 137.074 21.899 137.074Z" fill="#4C241D"/>
<path d="M188.008 117.696C187.595 117.696 187.175 117.605 186.778 117.408C186.608 117.321 176.713 112.593 167.1 117.405C165.73 118.086 164.073 117.535 163.385 116.166C162.702 114.799 163.255 113.136 164.624 112.454C176.802 106.368 188.747 112.205 189.249 112.454C190.618 113.136 191.171 114.799 190.488 116.166C190.001 117.137 189.025 117.696 188.008 117.696Z" fill="#4C241D"/>
<path d="M193.545 137.074C193.184 137.074 192.812 137.002 192.458 136.849C192.278 136.774 174.125 129.118 164.333 134.014C162.961 134.692 161.304 134.144 160.618 132.775C159.933 131.407 160.488 129.745 161.855 129.061C173.93 123.02 193.802 131.402 194.638 131.761C196.044 132.362 196.695 133.99 196.093 135.395C195.643 136.443 194.621 137.074 193.545 137.074Z" fill="#4C241D"/>
<path d="M50.3623 135.609C46.5111 129.349 44.3582 122.355 44.3582 114.977C44.3582 88.22 72.6677 66.5302 107.59 66.5302C142.513 66.5302 170.823 88.22 170.823 114.977C170.823 141.732 142.513 163.422 107.59 163.422C91.5878 163.422 76.972 158.868 65.8335 151.357" fill="#EFEFD2"/>
<path d="M107.59 166.189C91.6559 166.189 76.2781 161.737 64.2874 153.653C63.02 152.799 62.6842 151.076 63.538 149.812C64.3951 148.54 66.1187 148.21 67.3813 149.062C78.4691 156.537 92.749 160.653 107.59 160.653C140.932 160.653 168.055 140.164 168.055 114.975C168.055 89.7866 140.932 69.2957 107.59 69.2957C74.2504 69.2957 47.1273 89.7866 47.1273 114.975C47.1273 121.67 49.0094 128.126 52.7211 134.156C53.5227 135.46 53.1172 137.166 51.8166 137.966C50.5048 138.762 48.8034 138.36 48.0066 137.06C43.7483 130.143 41.5906 122.711 41.5906 114.975C41.5906 86.7344 71.1976 63.76 107.59 63.76C143.984 63.76 173.592 86.7344 173.592 114.975C173.592 143.215 143.984 166.189 107.59 166.189Z" fill="#4C241D"/>
<path d="M58.7854 148.549C58.109 148.549 57.4341 148.304 56.9002 147.808C55.8943 146.875 54.9327 145.917 54.0154 144.93C52.9778 143.807 53.0427 142.057 54.1612 141.015C55.2859 139.974 57.0333 140.042 58.0757 141.162C58.9011 142.05 59.7661 142.912 60.669 143.753C61.7891 144.794 61.854 146.545 60.8116 147.665C60.2667 148.251 59.5253 148.549 58.7854 148.549Z" fill="#4C241D"/>
<path d="M109.106 90.0162C103.755 90.0162 99.417 85.6794 99.417 80.3275V60.9516C99.417 55.6012 103.755 51.2629 109.106 51.2629C114.457 51.2629 118.796 55.6012 118.796 60.9516V80.3275C118.796 85.6794 114.457 90.0162 109.106 90.0162Z" fill="#FFCE56"/>
<path d="M109.106 92.7848C102.235 92.7848 96.6478 87.1968 96.6478 80.3274V60.9516C96.6478 54.0823 102.235 48.4958 109.106 48.4958C115.977 48.4958 121.566 54.0823 121.566 60.9516V80.3274C121.566 87.1968 115.977 92.7848 109.106 92.7848ZM109.106 54.0316C105.288 54.0316 102.185 57.1344 102.185 60.9516V80.3274C102.185 84.1446 105.288 87.2491 109.106 87.2491C112.924 87.2491 116.027 84.1446 116.027 80.3274V60.9516C116.027 57.136 112.924 54.0316 109.106 54.0316Z" fill="#4C241D"/>
<path d="M157.557 114.929C157.557 124.102 147.971 126.001 139.561 126.001C131.152 126.001 121.566 124.102 121.566 114.929C121.566 105.757 131.152 92.7848 139.561 92.7848C147.971 92.7848 157.557 105.757 157.557 114.929Z" fill="white"/>
<path d="M139.56 128.769C121.494 128.769 118.796 120.098 118.796 114.929C118.796 104.51 129.26 90.0162 139.56 90.0162C149.862 90.0162 160.325 104.51 160.325 114.929C160.325 120.098 157.627 128.769 139.56 128.769ZM139.56 95.552C133.156 95.552 124.333 106.779 124.333 114.929C124.333 116.984 124.333 123.234 139.56 123.234C154.788 123.234 154.788 116.984 154.788 114.929C154.788 106.779 145.965 95.552 139.56 95.552Z" fill="#4C241D"/>
<path d="M57.8872 114.929C57.8872 124.102 67.4732 126.001 75.8837 126.001C84.2926 126.001 93.8786 124.102 93.8786 114.929C93.8786 105.757 84.2926 92.7848 75.8837 92.7848C67.4732 92.7848 57.8872 105.757 57.8872 114.929Z" fill="white"/>
<path d="M75.8837 128.769C57.8175 128.769 55.1196 120.098 55.1196 114.929C55.1196 104.51 65.5817 90.0162 75.8837 90.0162C86.1841 90.0162 96.6478 104.51 96.6478 114.929C96.6478 120.098 93.9499 128.769 75.8837 128.769ZM75.8837 95.552C69.4788 95.552 60.6564 106.779 60.6564 114.929C60.6564 116.984 60.6564 123.234 75.8837 123.234C91.111 123.234 91.111 116.984 91.111 114.929C91.111 106.779 82.2886 95.552 75.8837 95.552Z" fill="#4C241D"/>
<path d="M135.408 120.174C133.878 120.174 132.639 118.935 132.639 117.405V103.856C132.639 102.326 133.878 101.089 135.408 101.089C136.939 101.089 138.176 102.326 138.176 103.856V117.405C138.176 118.935 136.939 120.174 135.408 120.174Z" fill="#4C241D"/>
<path d="M80.0359 120.174C78.5056 120.174 77.2683 118.935 77.2683 117.405V103.856C77.2683 102.326 78.5056 101.089 80.0359 101.089C81.5662 101.089 82.8051 102.326 82.8051 103.856V117.405C82.8051 118.935 81.5662 120.174 80.0359 120.174Z" fill="#4C241D"/>
<path d="M127.08 143.167C123.891 143.167 120.759 142.857 117.713 142.239C112.043 141.087 103.556 140.091 95.3187 141.887C83.6843 144.434 74.3756 141.96 73.9859 141.856C72.5126 141.453 71.6413 139.931 72.0452 138.455C72.4508 136.982 73.9716 136.103 75.4433 136.513C75.6319 136.562 83.9536 138.7 94.1337 136.481C103.316 134.473 112.621 135.553 118.815 136.814C124.68 138 130.923 137.893 137.368 136.481C138.86 136.16 140.34 137.094 140.665 138.593C140.993 140.088 140.045 141.561 138.553 141.887C134.662 142.739 130.828 143.167 127.08 143.167Z" fill="#4C241D"/>
<path d="M121.192 140.001L124.785 148.5C125.621 150.475 128.43 150.458 129.238 148.47L132.658 140.063C128.357 140.555 124.523 140.44 121.192 140.001Z" fill="white"/>
<path d="M127.004 152.739C124.916 152.739 123.048 151.5 122.234 149.579L118.641 141.081C118.255 140.164 118.388 139.112 118.991 138.323C119.593 137.536 120.56 137.126 121.554 137.258C125.025 137.718 128.656 137.734 132.344 137.315C133.328 137.177 134.274 137.612 134.865 138.392C135.454 139.169 135.592 140.202 135.224 141.108L131.804 149.515C131.012 151.46 129.141 152.726 127.041 152.74C127.029 152.739 127.015 152.739 127.004 152.739ZM125.52 143.126L126.999 146.626L128.419 143.134C127.448 143.161 126.48 143.164 125.52 143.126Z" fill="#4C241D"/>
<path d="M80.0089 140.044L83.4371 148.47C84.2451 150.458 87.0538 150.477 87.8903 148.5L91.5894 139.747C87.0206 140.417 82.9888 140.33 80.0089 140.044Z" fill="white"/>
<path d="M85.6709 152.739C85.6598 152.739 85.6471 152.739 85.636 152.739C83.5354 152.724 81.6644 151.46 80.8708 149.514L77.4426 141.087C77.0782 140.191 77.2113 139.169 77.7895 138.39C78.3677 137.614 79.2929 137.204 80.2735 137.291C82.7528 137.525 86.6578 137.674 91.1886 137.009C92.193 136.871 93.1705 137.265 93.782 138.056C94.3935 138.845 94.5313 139.904 94.1416 140.826L90.4409 149.579C89.625 151.5 87.7573 152.739 85.6709 152.739ZM84.2102 143.023L85.6756 146.626L87.2281 142.956C86.1604 143.012 85.1275 143.023 84.2102 143.023Z" fill="#4C241D"/>
<path d="M118.796 78.9448H99.417C97.8867 78.9448 96.6478 77.7062 96.6478 76.1761C96.6478 74.6461 97.8867 73.4075 99.417 73.4075H118.796C120.327 73.4075 121.566 74.6461 121.566 76.1761C121.566 77.7062 120.327 78.9448 118.796 78.9448Z" fill="#4C241D"/>
<path d="M118.796 67.8718H99.417C97.8867 67.8718 96.6478 66.6348 96.6478 65.1047C96.6478 63.5747 97.8867 62.3361 99.417 62.3361H118.796C120.327 62.3361 121.566 63.5747 121.566 65.1047C121.566 66.6348 120.327 67.8718 118.796 67.8718Z" fill="#4C241D"/>
</svg>
